{"glyphs":{"0":{"ha":499,"x_min":3,"x_max":431,"o":"m 146 306 l 289 306 l 289 806 l 146 806 l 146 306 m 74 235 l 74 306 l 3 306 l 3 806 l 74 806 l 74 876 l 360 876 l 360 806 l 431 806 l 431 306 l 360 306 l 360 235 l 74 235 z "},"1":{"ha":350,"x_min":-6,"x_max":281,"o":"m 138 235 l 281 235 l 281 876 l 138 876 l 138 806 l -6 806 l -6 733 l 138 733 l 138 235 z "},"2":{"ha":501,"x_min":1,"x_max":429,"o":"m 429 592 l 358 592 l 358 519 l 288 519 l 288 449 l 215 449 l 215 378 l 144 378 l 144 306 l 429 306 l 429 235 l 1 235 l 1 378 l 72 378 l 72 449 l 144 449 l 144 519 l 215 519 l 215 592 l 288 592 l 288 806 l 144 806 l 144 733 l 1 733 l 1 806 l 72 806 l 72 876 l 358 876 l 358 806 l 429 806 l 429 592 z "},"3":{"ha":497,"x_min":-3,"x_max":425,"o":"m 354 235 l 354 306 l 425 306 l 425 519 l 354 519 l 354 592 l 425 592 l 425 806 l 354 806 l 354 876 l 68 876 l 68 806 l -3 806 l -3 733 l 140 733 l 140 806 l 283 806 l 283 592 l 140 592 l 140 519 l 283 519 l 283 306 l 140 306 l 140 378 l -3 378 l -3 306 l 68 306 l 68 235 l 354 235 z "},"4":{"ha":506,"x_min":8,"x_max":436,"o":"m 365 378 l 365 235 l 222 235 l 222 378 l 8 378 l 8 519 l 79 519 l 79 663 l 151 663 l 151 806 l 222 806 l 222 876 l 365 876 l 365 449 l 436 449 l 436 378 l 365 378 m 151 449 l 222 449 l 222 519 l 151 519 l 151 449 z "},"5":{"ha":497,"x_min":-3,"x_max":425,"o":"m 282 306 l 139 306 l 139 378 l -3 378 l -3 306 l 68 306 l 68 235 l 353 235 l 353 306 l 425 306 l 425 592 l 353 592 l 353 663 l 139 663 l 139 806 l 425 806 l 425 876 l -3 876 l -3 519 l 139 519 l 139 592 l 282 592 l 282 306 z "},"6":{"ha":506,"x_min":1,"x_max":429,"o":"m 143 306 l 286 306 l 286 519 l 143 519 l 143 306 m 72 235 l 72 306 l 1 306 l 1 806 l 72 806 l 72 876 l 358 876 l 358 806 l 429 806 l 429 733 l 286 733 l 286 806 l 143 806 l 143 592 l 358 592 l 358 519 l 429 519 l 429 306 l 358 306 l 358 235 l 72 235 z "},"7":{"ha":500,"x_min":1,"x_max":429,"o":"m 429 733 l 358 733 l 358 592 l 286 592 l 286 449 l 215 449 l 215 235 l 72 235 l 72 449 l 144 449 l 144 592 l 215 592 l 215 733 l 286 733 l 286 806 l 1 806 l 1 876 l 429 876 l 429 733 z "},"8":{"ha":499,"x_min":0,"x_max":428,"o":"m 143 306 l 286 306 l 286 519 l 143 519 l 143 306 m 71 235 l 71 306 l 0 306 l 0 519 l 71 519 l 71 592 l 0 592 l 0 806 l 71 806 l 71 876 l 357 876 l 357 806 l 428 806 l 428 592 l 357 592 l 357 519 l 428 519 l 428 306 l 357 306 l 357 235 l 71 235 m 286 806 l 143 806 l 143 592 l 286 592 l 286 806 z "},"9":{"ha":510,"x_min":0,"x_max":428,"o":"m 285 806 l 142 806 l 142 592 l 285 592 l 285 806 m 357 876 l 357 806 l 428 806 l 428 306 l 357 306 l 357 235 l 71 235 l 71 306 l 0 306 l 0 378 l 142 378 l 142 306 l 285 306 l 285 519 l 71 519 l 71 592 l 0 592 l 0 806 l 71 806 l 71 876 l 357 876 z "}," ":{"ha":299,"x_min":0,"x_max":0,"o":""},"!":{"ha":210,"x_min":1,"x_max":144,"o":"m 1 876 l 144 876 l 144 378 l 1 378 l 1 876 m 144 235 l 144 306 l 1 306 l 1 235 l 144 235 z "},"\"":{"ha":210,"x_min":-1,"x_max":142,"o":"m 142 661 l -1 661 l -1 875 l 142 875 l 142 661 z "},"#":{"ha":565,"x_min":0,"x_max":500,"o":"m 214 378 l 286 378 l 286 235 l 428 235 l 428 378 l 500 378 l 500 449 l 428 449 l 428 663 l 500 663 l 500 733 l 428 733 l 428 876 l 286 876 l 286 733 l 214 733 l 214 876 l 71 876 l 71 733 l 0 733 l 0 663 l 71 663 l 71 449 l 0 449 l 0 378 l 71 378 l 71 235 l 214 235 l 214 378 m 214 663 l 286 663 l 286 449 l 214 449 l 214 663 z "},"$":{"ha":501,"x_min":6,"x_max":433,"o":"m 76 235 l 149 235 l 149 163 l 292 163 l 292 235 l 363 235 l 363 306 l 433 306 l 433 449 l 363 449 l 363 519 l 292 519 l 292 663 l 433 663 l 433 733 l 363 733 l 363 806 l 292 806 l 292 876 l 149 876 l 149 806 l 76 806 l 76 733 l 6 733 l 6 592 l 76 592 l 76 519 l 149 519 l 149 378 l 6 378 l 6 306 l 76 306 l 76 235 z "},"%":{"ha":640,"x_min":-1,"x_max":569,"o":"m 69 806 l 69 876 l 283 876 l 283 806 l 356 806 l 356 663 l 69 663 l 69 735 l -1 735 l -1 806 l 69 806 m 283 735 l 283 592 l 213 592 l 213 521 l 142 521 l 142 449 l 69 449 l 69 378 l -1 378 l -1 306 l 142 306 l 142 378 l 213 378 l 213 306 l 283 306 l 283 235 l 499 235 l 499 306 l 569 306 l 569 378 l 499 378 l 499 449 l 283 449 l 283 521 l 356 521 l 356 592 l 426 592 l 426 663 l 499 663 l 499 735 l 569 735 l 569 806 l 426 806 l 426 735 l 283 735 m 213 378 l 213 449 l 283 449 l 283 378 l 213 378 m 356 378 l 426 378 l 426 306 l 356 306 l 356 378 m 213 735 l 213 806 l 142 806 l 142 735 l 213 735 z "},"&":{"ha":492,"x_min":1,"x_max":429,"o":"m 144 304 l 215 304 l 215 447 l 144 447 l 144 304 m 72 804 l 72 875 l 215 875 l 215 804 l 288 804 l 288 661 l 215 661 l 215 519 l 429 519 l 429 447 l 358 447 l 358 304 l 429 304 l 429 233 l 72 233 l 72 304 l 1 304 l 1 519 l 72 519 l 72 661 l 1 661 l 1 804 l 72 804 z "},"'":{"ha":274,"x_min":-3,"x_max":211,"o":"m -3 806 l 68 806 l 68 876 l 211 876 l 211 806 l 140 806 l 140 733 l -3 733 l -3 806 z "},"(":{"ha":279,"x_min":0,"x_max":214,"o":"m 143 806 l 214 806 l 214 876 l 71 876 l 71 806 l 0 806 l 0 163 l 71 163 l 71 92 l 214 92 l 214 163 l 143 163 l 143 806 z "},")":{"ha":293,"x_min":3,"x_max":217,"o":"m 74 806 l 3 806 l 3 876 l 146 876 l 146 806 l 217 806 l 217 163 l 146 163 l 146 92 l 3 92 l 3 163 l 74 163 l 74 806 z "},"*":{"ha":425,"x_min":1,"x_max":358,"o":"m 144 663 l 144 592 l 1 592 l 1 663 l 74 663 l 74 806 l 1 806 l 1 876 l 144 876 l 144 806 l 215 806 l 215 876 l 358 876 l 358 806 l 288 806 l 288 663 l 358 663 l 358 592 l 215 592 l 215 663 l 144 663 z "},"+":{"ha":494,"x_min":0,"x_max":428,"o":"m 0 519 l 143 519 l 143 663 l 286 663 l 286 519 l 428 519 l 428 449 l 286 449 l 286 306 l 143 306 l 143 449 l 0 449 l 0 519 z "},",":{"ha":288,"x_min":3,"x_max":217,"o":"m 3 163 l 3 235 l 74 235 l 74 306 l 217 306 l 217 235 l 146 235 l 146 163 l 3 163 z "},"-":{"ha":272,"x_min":0,"x_max":214,"o":"m 0 519 l 214 519 l 214 449 l 0 449 l 0 519 z "},".":{"ha":208,"x_min":0,"x_max":143,"o":"m 0 235 l 143 235 l 143 306 l 0 306 l 0 235 z "},"/":{"ha":424,"x_min":-1,"x_max":356,"o":"m -1 235 l -1 449 l 69 449 l 69 592 l 142 592 l 142 733 l 213 733 l 213 876 l 356 876 l 356 663 l 283 663 l 283 519 l 213 519 l 213 378 l 142 378 l 142 235 l -1 235 z "},":":{"ha":215,"x_min":3,"x_max":146,"o":"m 3 235 l 146 235 l 146 306 l 3 306 l 3 235 m 3 592 l 146 592 l 146 663 l 3 663 l 3 592 z "},";":{"ha":276,"x_min":-3,"x_max":211,"o":"m 210 663 l 67 663 l 67 592 l 210 592 l 210 663 m -3 163 l -3 235 l 68 235 l 68 306 l 211 306 l 211 235 l 140 235 l 140 163 l -3 163 z "},"<":{"ha":350,"x_min":0,"x_max":286,"o":"m 71 379 l 71 308 l 143 308 l 143 236 l 286 236 l 286 308 l 214 308 l 214 379 l 143 379 l 143 522 l 214 522 l 214 593 l 286 593 l 286 664 l 143 664 l 143 593 l 71 593 l 71 522 l 0 522 l 0 379 l 71 379 z "},"=":{"ha":490,"x_min":0,"x_max":428,"o":"m 0 378 l 0 449 l 428 449 l 428 378 l 0 378 m 0 519 l 0 592 l 428 592 l 428 519 l 0 519 z "},">":{"ha":353,"x_min":0,"x_max":286,"o":"m 214 379 l 214 308 l 143 308 l 143 236 l 0 236 l 0 308 l 71 308 l 71 379 l 143 379 l 143 522 l 71 522 l 71 593 l 0 593 l 0 664 l 143 664 l 143 593 l 214 593 l 214 522 l 286 522 l 286 379 l 214 379 z "},"?":{"ha":510,"x_min":3,"x_max":431,"o":"m 217 235 l 74 235 l 74 306 l 217 306 l 217 235 m 146 519 l 146 592 l 289 592 l 289 806 l 146 806 l 146 733 l 3 733 l 3 806 l 74 806 l 74 876 l 360 876 l 360 806 l 431 806 l 431 592 l 360 592 l 360 519 l 217 519 l 217 378 l 74 378 l 74 519 l 146 519 z "},"@":{"ha":858,"x_min":0,"x_max":785,"o":"m 71 804 l 71 661 l 0 661 l 0 376 l 71 376 l 71 233 l 214 233 l 214 163 l 642 163 l 642 233 l 286 233 l 286 306 l 214 306 l 214 376 l 143 376 l 143 661 l 214 661 l 214 733 l 286 733 l 286 804 l 500 804 l 500 733 l 571 733 l 571 447 l 642 447 l 642 661 l 428 661 l 428 447 l 357 447 l 357 590 l 428 590 l 428 661 l 286 661 l 286 590 l 214 590 l 214 447 l 286 447 l 286 376 l 785 376 l 785 661 l 714 661 l 714 804 l 571 804 l 571 876 l 214 876 l 214 804 l 71 804 z "},"A":{"ha":653,"x_min":-7,"x_max":564,"o":"m 421 594 l 493 594 l 493 379 l 564 379 l 564 238 l 421 238 l 421 379 l 136 379 l 136 238 l -7 238 l -7 379 l 64 379 l 64 594 l 136 594 l 136 736 l 207 736 l 207 879 l 350 879 l 350 736 l 421 736 l 421 594 m 350 451 l 350 594 l 207 594 l 207 451 l 350 451 z "},"B":{"ha":496,"x_min":-3,"x_max":425,"o":"m -3 235 l 354 235 l 354 306 l 425 306 l 425 519 l 354 519 l 354 592 l 425 592 l 425 806 l 354 806 l 354 876 l -3 876 l -3 235 m 283 306 l 140 306 l 140 519 l 283 519 l 283 306 m 283 592 l 140 592 l 140 806 l 283 806 l 283 592 z "},"C":{"ha":564,"x_min":0,"x_max":500,"o":"m 143 306 l 357 306 l 357 378 l 500 378 l 500 306 l 428 306 l 428 235 l 71 235 l 71 306 l 0 306 l 0 806 l 71 806 l 71 876 l 428 876 l 428 806 l 500 806 l 500 733 l 357 733 l 357 806 l 143 806 l 143 306 z "},"D":{"ha":567,"x_min":-3,"x_max":497,"o":"m 140 306 l 283 306 l 283 378 l 354 378 l 354 733 l 283 733 l 283 806 l 140 806 l 140 306 m 354 876 l 354 806 l 425 806 l 425 733 l 497 733 l 497 378 l 425 378 l 425 306 l 354 306 l 354 235 l -3 235 l -3 876 l 354 876 z "},"E":{"ha":499,"x_min":0,"x_max":428,"o":"m 0 235 l 428 235 l 428 306 l 143 306 l 143 519 l 357 519 l 357 592 l 143 592 l 143 806 l 428 806 l 428 876 l 0 876 l 0 235 z "},"F":{"ha":488,"x_min":-1,"x_max":426,"o":"m 426 876 l 426 806 l 142 806 l 142 592 l 356 592 l 356 519 l 142 519 l 142 235 l -1 235 l -1 876 l 426 876 z "},"G":{"ha":568,"x_min":-1,"x_max":499,"o":"m 213 519 l 213 592 l 499 592 l 499 235 l 69 235 l 69 306 l -1 306 l -1 806 l 69 806 l 69 876 l 426 876 l 426 806 l 499 806 l 499 733 l 356 733 l 356 806 l 142 806 l 142 306 l 285 306 l 285 378 l 356 378 l 356 519 l 213 519 z "},"H":{"ha":565,"x_min":-3,"x_max":497,"o":"m -3 235 l 140 235 l 140 519 l 354 519 l 354 235 l 497 235 l 497 876 l 354 876 l 354 592 l 140 592 l 140 876 l -3 876 l -3 235 z "},"I":{"ha":200,"x_min":-1,"x_max":142,"o":"m -1 235 l 142 235 l 142 876 l -1 876 l -1 235 z "},"J":{"ha":417,"x_min":1,"x_max":358,"o":"m 215 306 l 144 306 l 144 449 l 1 449 l 1 306 l 72 306 l 72 235 l 288 235 l 288 306 l 358 306 l 358 876 l 215 876 l 215 306 z "},"K":{"ha":501,"x_min":-1,"x_max":499,"o":"m 285 378 l 285 306 l 356 306 l 356 235 l 499 235 l 499 306 l 426 306 l 426 378 l 356 378 l 356 449 l 285 449 l 285 519 l 213 519 l 213 663 l 285 663 l 285 733 l 356 733 l 356 806 l 426 806 l 426 876 l 285 876 l 285 806 l 213 806 l 213 733 l 142 733 l 142 876 l -1 876 l -1 235 l 142 235 l 142 449 l 213 449 l 213 378 l 285 378 z "},"L":{"ha":488,"x_min":0,"x_max":428,"o":"m 0 235 l 428 235 l 428 306 l 143 306 l 143 876 l 0 876 l 0 235 z "},"M":{"ha":633,"x_min":1,"x_max":572,"o":"m 429 876 l 572 876 l 572 235 l 429 235 l 429 449 l 358 449 l 358 306 l 215 306 l 215 449 l 144 449 l 144 235 l 1 235 l 1 876 l 144 876 l 144 733 l 215 733 l 215 592 l 358 592 l 358 733 l 429 733 l 429 876 z "},"N":{"ha":558,"x_min":-1,"x_max":499,"o":"m -1 235 l 142 235 l 142 519 l 213 519 l 213 449 l 285 449 l 285 306 l 356 306 l 356 235 l 499 235 l 499 876 l 356 876 l 356 519 l 285 519 l 285 663 l 213 663 l 213 806 l 142 806 l 142 876 l -1 876 l -1 235 z "},"O":{"ha":565,"x_min":0,"x_max":500,"o":"m 143 306 l 357 306 l 357 806 l 143 806 l 143 306 m 71 235 l 71 306 l 0 306 l 0 806 l 71 806 l 71 876 l 428 876 l 428 806 l 500 806 l 500 306 l 428 306 l 428 235 l 71 235 z "},"P":{"ha":564,"x_min":0,"x_max":500,"o":"m 428 876 l 428 806 l 500 806 l 500 592 l 428 592 l 428 519 l 143 519 l 143 235 l 0 235 l 0 876 l 428 876 m 143 592 l 357 592 l 357 806 l 143 806 l 143 592 z "},"Q":{"ha":568,"x_min":-1,"x_max":499,"o":"m 426 876 l 426 806 l 499 806 l 499 306 l 426 306 l 426 235 l 499 235 l 499 163 l 356 163 l 356 235 l 69 235 l 69 306 l -1 306 l -1 806 l 69 806 l 69 876 l 426 876 m 285 306 l 285 378 l 213 378 l 213 449 l 356 449 l 356 806 l 142 806 l 142 306 l 285 306 z "},"R":{"ha":563,"x_min":-1,"x_max":499,"o":"m 426 876 l 426 806 l 499 806 l 499 592 l 426 592 l 426 519 l 499 519 l 499 235 l 356 235 l 356 519 l 142 519 l 142 235 l -1 235 l -1 876 l 426 876 m 142 592 l 356 592 l 356 806 l 142 806 l 142 592 z "},"S":{"ha":490,"x_min":0,"x_max":428,"o":"m 143 806 l 286 806 l 286 733 l 428 733 l 428 806 l 357 806 l 357 876 l 71 876 l 71 806 l 0 806 l 0 592 l 71 592 l 71 519 l 286 519 l 286 306 l 143 306 l 143 378 l 0 378 l 0 306 l 71 306 l 71 235 l 357 235 l 357 306 l 428 306 l 428 519 l 357 519 l 357 592 l 143 592 l 143 806 z "},"T":{"ha":492,"x_min":0,"x_max":428,"o":"m 143 235 l 286 235 l 286 806 l 428 806 l 428 876 l 0 876 l 0 806 l 143 806 l 143 235 z "},"U":{"ha":567,"x_min":0,"x_max":500,"o":"m 143 306 l 357 306 l 357 876 l 500 876 l 500 306 l 428 306 l 428 235 l 71 235 l 71 306 l 0 306 l 0 876 l 143 876 l 143 306 z "},"V":{"ha":632,"x_min":0,"x_max":571,"o":"m 500 733 l 571 733 l 571 876 l 428 876 l 428 733 l 357 733 l 357 519 l 214 519 l 214 733 l 143 733 l 143 876 l 0 876 l 0 733 l 71 733 l 71 519 l 143 519 l 143 378 l 214 378 l 214 235 l 357 235 l 357 378 l 428 378 l 428 519 l 500 519 l 500 733 z "},"W":{"ha":932,"x_min":4,"x_max":861,"o":"m 504 521 l 504 735 l 361 735 l 361 521 l 218 521 l 218 735 l 147 735 l 147 878 l 4 878 l 4 735 l 75 735 l 75 521 l 147 521 l 147 378 l 218 378 l 218 235 l 361 235 l 361 378 l 504 378 l 504 235 l 647 235 l 647 378 l 718 378 l 718 521 l 790 521 l 790 735 l 861 735 l 861 878 l 718 878 l 718 735 l 647 735 l 647 521 l 504 521 z "},"X":{"ha":636,"x_min":-1,"x_max":569,"o":"m -1 876 l 142 876 l 142 733 l 213 733 l 213 663 l 356 663 l 356 733 l 426 733 l 426 876 l 569 876 l 569 733 l 499 733 l 499 663 l 426 663 l 426 592 l 356 592 l 356 519 l 426 519 l 426 449 l 499 449 l 499 378 l 569 378 l 569 235 l 426 235 l 426 378 l 356 378 l 356 449 l 213 449 l 213 378 l 142 378 l 142 235 l -1 235 l -1 378 l 69 378 l 69 449 l 142 449 l 142 519 l 213 519 l 213 592 l 142 592 l 142 663 l 69 663 l 69 733 l -1 733 l -1 876 z "},"Y":{"ha":640,"x_min":0,"x_max":571,"o":"m 214 592 l 214 235 l 357 235 l 357 592 l 428 592 l 428 663 l 500 663 l 500 733 l 571 733 l 571 876 l 428 876 l 428 733 l 357 733 l 357 663 l 214 663 l 214 733 l 143 733 l 143 876 l 0 876 l 0 733 l 71 733 l 71 663 l 143 663 l 143 592 l 214 592 z "},"Z":{"ha":636,"x_min":0,"x_max":571,"o":"m 71 378 l 0 378 l 0 235 l 571 235 l 571 306 l 143 306 l 143 378 l 214 378 l 214 449 l 286 449 l 286 519 l 357 519 l 357 592 l 428 592 l 428 663 l 500 663 l 500 733 l 571 733 l 571 876 l 0 876 l 0 806 l 428 806 l 428 733 l 357 733 l 357 663 l 286 663 l 286 592 l 214 592 l 214 519 l 143 519 l 143 449 l 71 449 l 71 378 z "},"[":{"ha":276,"x_min":-3,"x_max":211,"o":"m 140 806 l 211 806 l 211 876 l -3 876 l -3 92 l 211 92 l 211 163 l 140 163 l 140 806 z "},"\\":{"ha":419,"x_min":0,"x_max":357,"o":"m 357 235 l 357 449 l 286 449 l 286 592 l 214 592 l 214 733 l 143 733 l 143 876 l 0 876 l 0 663 l 71 663 l 71 519 l 143 519 l 143 378 l 214 378 l 214 235 l 357 235 z "},"]":{"ha":272,"x_min":0,"x_max":214,"o":"m 71 806 l 0 806 l 0 876 l 214 876 l 214 92 l 0 92 l 0 163 l 71 163 l 71 806 z "},"^":{"ha":488,"x_min":0,"x_max":428,"o":"m 143 949 l 285 949 l 285 876 l 357 876 l 357 806 l 428 806 l 428 733 l 285 733 l 285 806 l 143 806 l 143 733 l 0 733 l 0 806 l 71 806 l 71 876 l 143 876 l 143 949 z "},"_":{"ha":567,"x_min":0,"x_max":500,"o":"m 0 163 l 500 163 l 500 92 l 0 92 l 0 163 z "},"`":{"ha":283,"x_min":0,"x_max":214,"o":"m 214 806 l 143 806 l 143 876 l 0 876 l 0 806 l 71 806 l 71 733 l 214 733 l 214 806 z "},"a":{"ha":490,"x_min":0,"x_max":424,"o":"m 353 590 l 424 590 l 424 239 l 71 239 l 71 308 l 0 308 l 0 450 l 71 450 l 71 521 l 282 521 l 282 590 l 71 590 l 71 661 l 353 661 l 353 590 m 282 308 l 282 450 l 142 450 l 142 308 l 282 308 z "},"b":{"ha":496,"x_min":1,"x_max":425,"o":"m 1 239 l 1 872 l 143 872 l 143 661 l 354 661 l 354 590 l 425 590 l 425 308 l 354 308 l 354 239 l 1 239 m 283 308 l 283 590 l 143 590 l 143 308 l 283 308 z "},"c":{"ha":485,"x_min":0,"x_max":425,"o":"m 282 590 l 142 590 l 142 308 l 282 308 l 282 381 l 425 381 l 425 310 l 353 310 l 353 239 l 69 239 l 69 308 l 0 308 l 0 590 l 69 590 l 69 661 l 353 661 l 353 590 l 425 590 l 425 519 l 282 519 l 282 590 z "},"d":{"ha":485,"x_min":-1,"x_max":422,"o":"m 422 239 l 422 872 l 281 872 l 281 661 l 68 661 l 68 590 l -1 590 l -1 308 l 68 308 l 68 239 l 422 239 m 140 308 l 140 590 l 281 590 l 281 308 l 140 308 z "},"e":{"ha":489,"x_min":0,"x_max":425,"o":"m 282 590 l 142 590 l 142 521 l 282 521 l 282 590 m 142 450 l 142 308 l 282 308 l 282 381 l 425 381 l 425 310 l 353 310 l 353 239 l 69 239 l 69 308 l 0 308 l 0 590 l 69 590 l 69 661 l 353 661 l 353 590 l 425 590 l 425 450 l 142 450 z "},"f":{"ha":271,"x_min":0,"x_max":213,"o":"m 142 239 l 0 239 l 0 803 l 69 803 l 69 874 l 213 874 l 213 803 l 142 803 l 142 660 l 213 660 l 213 589 l 142 589 l 142 239 z "},"g":{"ha":486,"x_min":-7,"x_max":421,"o":"m 281 590 l 139 590 l 139 308 l 278 308 l 278 379 l 281 379 l 281 590 m 278 165 l 278 239 l 68 239 l 68 308 l -1 308 l -1 590 l 68 590 l 68 661 l 421 661 l 421 165 l 350 165 l 350 94 l -7 94 l -7 165 l 278 165 z "},"h":{"ha":489,"x_min":0,"x_max":425,"o":"m 142 239 l 0 239 l 0 872 l 142 872 l 142 663 l 356 663 l 356 590 l 425 590 l 425 239 l 283 239 l 283 590 l 213 590 l 213 519 l 142 519 l 142 239 z "},"i":{"ha":200,"x_min":1,"x_max":144,"o":"m 144 872 l 1 872 l 1 801 l 144 801 l 144 872 m 1 661 l 143 661 l 143 239 l 1 239 l 1 661 z "},"j":{"ha":207,"x_min":1,"x_max":144,"o":"m 144 872 l 1 872 l 1 801 l 144 801 l 144 872 m 1 661 l 143 661 l 144 96 l 1 96 l 1 661 z "},"k":{"ha":497,"x_min":0,"x_max":428,"o":"m 142 239 l 0 239 l 0 872 l 142 872 l 142 594 l 214 594 l 214 667 l 356 667 l 356 594 l 285 594 l 285 524 l 214 524 l 214 453 l 285 453 l 285 381 l 356 381 l 356 310 l 428 310 l 428 239 l 285 239 l 285 310 l 214 310 l 214 381 l 142 381 l 142 239 z "},"l":{"ha":208,"x_min":3,"x_max":144,"o":"m 144 239 l 3 239 l 3 872 l 144 872 l 144 239 z "},"m":{"ha":635,"x_min":0,"x_max":564,"o":"m 0 661 l 493 661 l 493 590 l 564 590 l 564 239 l 424 239 l 424 590 l 353 590 l 353 239 l 211 239 l 211 590 l 142 590 l 142 239 l 0 239 l 0 661 z "},"n":{"ha":496,"x_min":0,"x_max":424,"o":"m 0 661 l 353 663 l 353 590 l 424 590 l 424 239 l 282 239 l 282 590 l 211 590 l 211 519 l 142 519 l 142 239 l 0 239 l 0 661 z "},"o":{"ha":492,"x_min":0,"x_max":424,"o":"m 142 590 l 282 590 l 282 308 l 142 308 l 142 590 m 353 239 l 353 308 l 424 308 l 424 590 l 353 590 l 353 661 l 69 661 l 69 590 l 0 590 l 0 308 l 69 308 l 69 239 l 353 239 z "},"p":{"ha":490,"x_min":0,"x_max":425,"o":"m 143 590 l 283 590 l 283 308 l 143 308 l 143 590 m 143 239 l 356 239 l 356 308 l 425 308 l 425 590 l 356 590 l 356 661 l 1 661 l 0 96 l 143 96 l 143 239 z "},"q":{"ha":488,"x_min":0,"x_max":425,"o":"m 282 590 l 142 590 l 142 308 l 282 308 l 282 590 m 282 239 l 69 239 l 69 308 l 0 308 l 0 590 l 69 590 l 69 661 l 424 661 l 425 96 l 282 96 l 282 239 z "},"r":{"ha":271,"x_min":0,"x_max":213,"o":"m 0 661 l 213 661 l 213 590 l 142 590 l 142 239 l 0 239 l 0 661 z "},"s":{"ha":414,"x_min":0,"x_max":357,"o":"m 143 524 l 214 524 l 214 453 l 286 453 l 286 381 l 357 381 l 357 310 l 286 310 l 286 239 l 71 239 l 71 310 l 0 310 l 0 381 l 143 381 l 143 453 l 71 453 l 71 524 l 0 524 l 0 594 l 71 594 l 71 667 l 286 667 l 286 594 l 357 594 l 357 524 l 214 524 l 214 594 l 143 594 l 143 524 m 214 381 l 143 381 l 143 310 l 214 310 l 214 381 z "},"t":{"ha":275,"x_min":0,"x_max":214,"o":"m 143 661 l 214 661 l 214 590 l 143 590 l 143 306 l 214 306 l 214 233 l 71 233 l 71 306 l 0 306 l 0 804 l 143 804 l 143 661 z "},"u":{"ha":483,"x_min":0,"x_max":424,"o":"m 424 239 l 69 239 l 69 310 l 0 310 l 0 663 l 142 663 l 142 310 l 213 310 l 213 381 l 282 381 l 282 663 l 424 663 l 424 239 z "},"v":{"ha":503,"x_min":4,"x_max":432,"o":"m 4 661 l 147 661 l 147 519 l 290 519 l 290 661 l 432 661 l 432 519 l 361 519 l 361 376 l 290 376 l 290 233 l 147 233 l 147 376 l 75 376 l 75 519 l 4 519 l 4 661 z "},"w":{"ha":639,"x_min":0,"x_max":564,"o":"m 71 238 l 71 379 l 0 379 l 0 661 l 142 661 l 142 521 l 211 521 l 211 661 l 353 661 l 353 521 l 424 521 l 424 661 l 564 661 l 564 379 l 494 379 l 494 238 l 353 238 l 353 379 l 211 379 l 211 238 l 71 238 z "},"x":{"ha":426,"x_min":3,"x_max":360,"o":"m 3 661 l 146 661 l 146 519 l 217 519 l 217 661 l 360 661 l 360 519 l 289 519 l 289 376 l 360 376 l 360 233 l 217 233 l 217 376 l 146 376 l 146 233 l 3 233 l 3 376 l 74 376 l 74 519 l 3 519 l 3 661 z "},"y":{"ha":431,"x_min":-69,"x_max":358,"o":"m 1 661 l 144 661 l 144 376 l 217 376 l 217 661 l 358 661 l 358 376 l 288 376 l 288 306 l 217 306 l 217 163 l 144 163 l 144 90 l -69 90 l -69 163 l 74 163 l 74 376 l 1 376 l 1 661 z "},"z":{"ha":440,"x_min":10,"x_max":367,"o":"m 10 661 l 367 661 l 367 519 l 296 519 l 296 447 l 224 447 l 224 376 l 153 376 l 153 306 l 367 306 l 367 233 l 10 233 l 10 376 l 81 376 l 81 447 l 153 447 l 153 519 l 224 519 l 224 590 l 10 590 l 10 661 z "},"{":{"ha":350,"x_min":0,"x_max":286,"o":"m 71 235 l 143 235 l 143 163 l 286 163 l 286 235 l 214 235 l 214 519 l 143 519 l 143 592 l 214 592 l 214 876 l 286 876 l 286 949 l 143 949 l 143 876 l 71 876 l 71 592 l 0 592 l 0 519 l 71 519 l 71 235 z "},"|":{"ha":213,"x_min":0,"x_max":143,"o":"m 0 235 l 143 235 l 143 876 l 0 876 l 0 235 z "},"}":{"ha":360,"x_min":0,"x_max":286,"o":"m 214 235 l 143 235 l 143 163 l 0 163 l 0 235 l 71 235 l 71 519 l 143 519 l 143 592 l 71 592 l 71 876 l 0 876 l 0 949 l 143 949 l 143 876 l 214 876 l 214 592 l 286 592 l 286 519 l 214 519 l 214 235 z "},"~":{"ha":568,"x_min":0,"x_max":500,"o":"m 71 806 l 71 733 l 0 733 l 0 663 l 143 663 l 143 733 l 214 733 l 214 663 l 428 663 l 428 733 l 500 733 l 500 806 l 357 806 l 357 733 l 286 733 l 286 806 l 71 806 z "},"“":{"ha":653,"x_min":138,"x_max":422,"o":"m 138 1028 l 208 1028 l 208 1099 l 350 1099 l 350 1028 l 422 1028 l 422 1168 l 138 1168 l 138 1028 z "},"”":{"ha":200,"x_min":-37,"x_max":176,"o":"m -37 939 l 33 939 l 33 1010 l 104 1010 l 104 939 l 176 939 l 176 1079 l -37 1079 l -37 939 z "},"•":{"ha":653,"x_min":136,"x_max":422,"o":"m 136 879 l 207 879 l 207 950 l 350 950 l 350 879 l 422 879 l 422 1019 l 136 1019 l 136 879 z "},"ª":{"ha":490,"x_min":0,"x_max":428,"o":"m 143 806 l 286 806 l 286 733 l 428 733 l 428 806 l 357 806 l 357 876 l 71 876 l 71 806 l 0 806 l 0 592 l 71 592 l 71 519 l 286 519 l 286 306 l 143 306 l 143 378 l 0 378 l 0 306 l 71 306 l 71 235 l 357 235 l 357 306 l 428 306 l 428 519 l 357 519 l 357 592 l 143 592 l 143 806 m 144 96 l 288 96 l 288 167 l 144 167 l 144 96 z "},"º":{"ha":414,"x_min":0,"x_max":357,"o":"m 143 524 l 214 524 l 214 453 l 286 453 l 286 381 l 357 381 l 357 310 l 286 310 l 286 239 l 71 239 l 71 310 l 0 310 l 0 381 l 143 381 l 143 453 l 71 453 l 71 524 l 0 524 l 0 594 l 71 594 l 71 667 l 286 667 l 286 594 l 357 594 l 357 524 l 214 524 l 214 594 l 143 594 l 143 524 m 214 381 l 143 381 l 143 310 l 214 310 l 214 381 m 74 96 l 217 96 l 217 167 l 74 167 l 74 96 z "},"Â":{"ha":653,"x_min":-7,"x_max":564,"o":"m 421 594 l 493 594 l 493 379 l 564 379 l 564 238 l 421 238 l 421 379 l 136 379 l 136 238 l -7 238 l -7 379 l 64 379 l 64 594 l 136 594 l 136 736 l 207 736 l 207 879 l 350 879 l 350 736 l 421 736 l 421 594 m 350 451 l 350 594 l 207 594 l 207 451 l 350 451 m 207 879 m 350 879 m 138 879 l 208 879 l 208 950 l 350 950 l 350 879 l 422 879 l 422 1019 l 138 1019 l 138 879 z "},"Ã":{"ha":653,"x_min":-7,"x_max":564,"o":"m 421 594 l 493 594 l 493 379 l 564 379 l 564 238 l 421 238 l 421 379 l 136 379 l 136 238 l -7 238 l -7 379 l 64 379 l 64 594 l 136 594 l 136 736 l 207 736 l 207 879 l 350 879 l 350 736 l 421 736 l 421 594 m 350 451 l 350 594 l 207 594 l 207 451 l 350 451 m 415 1019 l 344 1019 l 344 949 l 203 949 l 203 1019 l 131 1019 l 131 879 l 415 879 l 415 1019 z "},"Î":{"ha":200,"x_min":-72,"x_max":213,"o":"m -1 235 l 142 235 l 142 876 l -1 876 l -1 235 m -72 879 l -1 879 l -1 950 l 140 950 l 140 879 l 213 879 l 213 1019 l -72 1019 l -72 879 z "},"Þ":{"ha":492,"x_min":0,"x_max":428,"o":"m 143 235 l 286 235 l 286 806 l 428 806 l 428 876 l 0 876 l 0 806 l 143 806 l 143 235 m 143 96 l 286 96 l 286 167 l 143 167 l 143 96 z "},"â":{"ha":490,"x_min":0,"x_max":424,"o":"m 353 590 l 424 590 l 424 239 l 71 239 l 71 308 l 0 308 l 0 450 l 71 450 l 71 521 l 282 521 l 282 590 l 71 590 l 71 661 l 353 661 l 353 590 m 282 308 l 282 450 l 142 450 l 142 308 l 282 308 m 104 725 l 175 725 l 175 796 l 246 796 l 246 725 l 318 725 l 318 865 l 104 865 l 104 725 z "},"ã":{"ha":490,"x_min":0,"x_max":424,"o":"m 353 590 l 424 590 l 424 239 l 71 239 l 71 308 l 0 308 l 0 450 l 71 450 l 71 521 l 282 521 l 282 590 l 71 590 l 71 661 l 353 661 l 353 590 m 282 308 l 282 450 l 142 450 l 142 308 l 282 308 m 354 871 l 283 871 l 283 800 l 142 800 l 142 871 l 69 871 l 69 731 l 354 731 l 354 871 z "},"î":{"ha":200,"x_min":-35,"x_max":181,"o":"m 1 661 l 143 661 l 143 239 l 1 239 l 1 661 m -35 731 l 36 731 l 36 801 l 108 801 l 108 731 l 181 731 l 181 871 l -35 871 l -35 731 z "},"þ":{"ha":275,"x_min":0,"x_max":214,"o":"m 143 661 l 214 661 l 214 590 l 143 590 l 143 306 l 214 306 l 214 233 l 71 233 l 71 306 l 0 306 l 0 804 l 143 804 l 143 661 m 0 96 l 143 96 l 143 167 l 0 167 l 0 96 z "}}}
